<svg xmlns="http://www.w3.org/2000/svg" width="132.093" height="134.64" viewBox="0 0 44.031 44.88">
  <metadata><?xpacket begin="﻿" id="W5M0MpCehiHzreSzNTczkc9d"?>
<x:xmpmeta xmlns:x="adobe:ns:meta/" x:xmptk="Adobe XMP Core 5.6-c138 79.159824, 2016/09/14-01:09:01        ">
   <rdf:RDF xmlns:rdf="http://www.w3.org/1999/02/22-rdf-syntax-ns#">
      <rdf:Description rdf:about=""/>
   </rdf:RDF>
</x:xmpmeta>
                                                                                                    
                                                                                                    
                                                                                                    
                                                                                                    
                                                                                                    
                                                                                                    
                                                                                                    
                                                                                                    
                                                                                                    
                                                                                                    
                                                                                                    
                                                                                                    
                                                                                                    
                                                                                                    
                                                                                                    
                                                                                                    
                                                                                                    
                                                                                                    
                                                                                                    
                                                                                                    
                           
<?xpacket end="w"?></metadata>
	<defs>
		<linearGradient id="red_black" x1="0%" y1="0%" x2="0%" y2="100%">
		<stop offset="0%" style="stop-color:#ff8d49;stop-opacity:1"/>
		<stop offset="100%" style="stop-color:#fe4b33;stop-opacity:1"/>
		</linearGradient>
	    <style>
	      .cls-1 {
	       fill:url(#red_black);  
	       color: #AEAFDD;  
	      }
	    </style>
	</defs>
  <path id="账户-full" class="cls-1" d="M471.4,1281.96a13.61,13.61,0,0,1-9.472-3.77,12.671,12.671,0,0,1,0-18.43,13.783,13.783,0,0,1,18.943,0,12.671,12.671,0,0,1,0,18.43A13.609,13.609,0,0,1,471.4,1281.96Zm-22.419,18.91a20.922,20.922,0,0,1,2.02-9.01,21.414,21.414,0,0,1,5.44-7.12c0.532-.46,1.1-0.9,1.683-1.32a5.978,5.978,0,0,1,4.827-.9,17.7,17.7,0,0,1,3.815,1.44,7.115,7.115,0,0,0,8.422,0,17.553,17.553,0,0,1,3.8-1.46,5.953,5.953,0,0,1,4.816.89,20.047,20.047,0,0,1,1.828,1.43,21.361,21.361,0,0,1,5.372,7.1,20.914,20.914,0,0,1,1.994,8.95" transform="translate(-448.969 -1256)"/>
</svg>
