<svg xmlns="http://www.w3.org/2000/svg" width="45.281" height="44.66" viewBox="0 0 45.281 44.66">
  <metadata><?xpacket begin="﻿" id="W5M0MpCehiHzreSzNTczkc9d"?>
<x:xmpmeta xmlns:x="adobe:ns:meta/" x:xmptk="Adobe XMP Core 5.6-c138 79.159824, 2016/09/14-01:09:01        ">
   <rdf:RDF xmlns:rdf="http://www.w3.org/1999/02/22-rdf-syntax-ns#">
      <rdf:Description rdf:about=""/>
   </rdf:RDF>
</x:xmpmeta>
                                                                                                    
                                                                                                    
                                                                                                    
                                                                                                    
                                                                                                    
                                                                                                    
                                                                                                    
                                                                                                    
                                                                                                    
                                                                                                    
                                                                                                    
                                                                                                    
                                                                                                    
                                                                                                    
                                                                                                    
                                                                                                    
                                                                                                    
                                                                                                    
                                                                                                    
                                                                                                    
                           
<?xpacket end="w"?></metadata>
<defs>
    <style>
      .cls-1 {
        fill: #59698a;
        fill-rule: evenodd;
      }
    </style>
  </defs>
  <path id="首页" class="cls-1" d="M111.178,1278.18v19.69a1,1,0,0,1-1,1h-9.035a1,1,0,0,1-1.005-1v-7.79a2.833,2.833,0,0,0-2.836-2.82H92.249a2.833,2.833,0,0,0-2.836,2.82v7.86a1,1,0,0,1-1,1H79.373a1,1,0,0,1-1-1v-19.76a1,1,0,0,0-1-1h0a1,1,0,0,0-1,1v19.94a2.826,2.826,0,0,0,2.836,2.82h9.392a2.827,2.827,0,0,0,2.836-2.82v-7.86a1,1,0,0,1,1-1h4.691a1,1,0,0,1,1,1v7.79a2.827,2.827,0,0,0,2.836,2.82h9.392a2.837,2.837,0,0,0,2.835-2.82v-19.87a1,1,0,0,0-1-1h0A1,1,0,0,0,111.178,1278.18Zm-37.159-3.23,18.139-15.04a4.441,4.441,0,0,1,5.682,0l18.14,15.04a1.021,1.021,0,0,0,.647.24h0a1.007,1.007,0,0,0,.648-1.78L97.84,1257.29a4.441,4.441,0,0,0-5.682,0l-19.435,16.12a1.007,1.007,0,0,0,.648,1.78h0A1.026,1.026,0,0,0,74.019,1274.95Zm41.074-9.28h0a1,1,0,0,0,1-1l0-4.33a3,3,0,0,0-2.993-2.98h-5.362a1,1,0,0,0-1.005,1h0a1,1,0,0,0,1.009,1l5.332-.02a0.993,0.993,0,0,1,1.01.99l0,4.34A1,1,0,0,0,115.093,1265.67Z" transform="translate(-72.344 -1256.28)"/>
</svg>
