<svg xmlns="http://www.w3.org/2000/svg" width="29" height="29" viewBox="0 0 29 29">
  <metadata><?xpacket begin="﻿" id="W5M0MpCehiHzreSzNTczkc9d"?>
<x:xmpmeta xmlns:x="adobe:ns:meta/" x:xmptk="Adobe XMP Core 5.6-c138 79.159824, 2016/09/14-01:09:01        ">
   <rdf:RDF xmlns:rdf="http://www.w3.org/1999/02/22-rdf-syntax-ns#">
      <rdf:Description rdf:about=""/>
   </rdf:RDF>
</x:xmpmeta>
                                                                                                    
                                                                                                    
                                                                                                    
                                                                                                    
                                                                                                    
                                                                                                    
                                                                                                    
                                                                                                    
                                                                                                    
                                                                                                    
                                                                                                    
                                                                                                    
                                                                                                    
                                                                                                    
                                                                                                    
                                                                                                    
                                                                                                    
                                                                                                    
                                                                                                    
                                                                                                    
                           
<?xpacket end="w"?></metadata>
<defs>
    <style>
      .cls-1 {
        fill: #fe4a33;
        fill-rule: evenodd;
      }
    </style>
  </defs>
  <path id="起投" class="cls-1" d="M119.5,883A14.5,14.5,0,1,0,134,897.5,14.517,14.517,0,0,0,119.5,883Zm0,27A12.5,12.5,0,1,1,132,897.5,12.514,12.514,0,0,1,119.5,910Zm-1.125-18.539-1.586-1.586a1,1,0,0,0-1.414,0h0a1,1,0,0,0,0,1.414l1.586,1.586a1,1,0,0,0,1.414,0h0A1,1,0,0,0,118.375,891.461Zm5.5-1.711h0a1,1,0,0,0-1.414,0l-1.586,1.586a1,1,0,0,0,0,1.414h0a1,1,0,0,0,1.414,0l1.586-1.586A1,1,0,0,0,123.875,889.75Zm1.5,5.125h0a1,1,0,0,0-1-1H115a1,1,0,0,0-1,1h0a1,1,0,0,0,1,1h2.5a1,1,0,0,1,1,1v1.375a1,1,0,0,1-1,1H115a1,1,0,0,0-1,1h0a1,1,0,0,0,1,1h2.5a1,1,0,0,1,1,1v2.5a1,1,0,0,0,1,1h0a1,1,0,0,0,1-1v-2.5a1,1,0,0,1,1-1h2.875a1,1,0,0,0,1-1h0a1,1,0,0,0-1-1H121.5a1,1,0,0,1-1-1v-1.375a1,1,0,0,1,1-1h2.875A1,1,0,0,0,125.375,894.875Z" transform="translate(-105 -883)"/>
</svg>
