<svg xmlns="http://www.w3.org/2000/svg" width="135.844" height="133.98" viewBox="0 0 45.281 44.66">
  <metadata><?xpacket begin="﻿" id="W5M0MpCehiHzreSzNTczkc9d"?>
<x:xmpmeta xmlns:x="adobe:ns:meta/" x:xmptk="Adobe XMP Core 5.6-c138 79.159824, 2016/09/14-01:09:01        ">
   <rdf:RDF xmlns:rdf="http://www.w3.org/1999/02/22-rdf-syntax-ns#">
      <rdf:Description rdf:about=""/>
   </rdf:RDF>
</x:xmpmeta>
                                                                                                    
                                                                                                                      
<?xpacket end="w"?></metadata>
	<defs>
		<linearGradient id="red_black" x1="0%" y1="0%" x2="0%" y2="100%">
		<stop offset="0%" style="stop-color:#ff8d49;stop-opacity:1"/>
		<stop offset="100%" style="stop-color:#fe4b33;stop-opacity:1"/>
		</linearGradient>
	    <style>
	      .cls-1 {
	       fill:url(#red_black);  
	       color: #AEAFDD;  
	      }
	    </style>
	</defs>
  <path id="首页-full" class="cls-1" d="M117.275,1273.41L97.84,1257.29a4.441,4.441,0,0,0-5.682,0l-19.435,16.12a1.007,1.007,0,0,0,.648,1.78h2.987v22.93a2.826,2.826,0,0,0,2.836,2.82h9.392a2.827,2.827,0,0,0,2.836-2.82v-7.86a1,1,0,0,1,1-1h4.691a1,1,0,0,1,1,1v7.79a2.827,2.827,0,0,0,2.836,2.82h9.392a2.837,2.837,0,0,0,2.835-2.82v-22.86h3.44A1.007,1.007,0,0,0,117.275,1273.41Zm-27.269,14.87H90.09a0.734,0.734,0,0,0-.083.1v-0.1Zm17.049-29.19h0l7.3,6.25a0.717,0.717,0,0,0,.115.1l0.127,0.11,0.011-.02a0.982,0.982,0,0,0,1.488-.86l0-4.33a3,3,0,0,0-2.993-2.98h-5.362a1,1,0,0,0-1.005,1h0A0.989,0.989,0,0,0,107.055,1259.09Z" transform="translate(-72.344 -1256.28)"/>
</svg>
