<svg xmlns="http://www.w3.org/2000/svg" width="45" height="45" viewBox="0 0 45 45">
  <metadata><?xpacket begin="﻿" id="W5M0MpCehiHzreSzNTczkc9d"?>
<x:xmpmeta xmlns:x="adobe:ns:meta/" x:xmptk="Adobe XMP Core 5.6-c138 79.159824, 2016/09/14-01:09:01        ">
   <rdf:RDF xmlns:rdf="http://www.w3.org/1999/02/22-rdf-syntax-ns#">
      <rdf:Description rdf:about=""/>
   </rdf:RDF>
</x:xmpmeta>
                                                                                                    
                                                                                                    
                                                                                                    
                                                                                                    
                                                                                                    
                                                                                                    
                                                                                                    
                                                                                                    
                                                                                                    
                                                                                                    
                                                                                                    
                                                                                                    
                                                                                                    
                                                                                                    
                                                                                                    
                                                                                                    
                                                                                                    
                                                                                                    
                                                                                                    
                                                                                                    
                           
<?xpacket end="w"?></metadata>
<defs>
    <style>
      .cls-1 {
        fill: #59698a;
        fill-rule: evenodd;
      }
    </style>
  </defs>
  <path id="发现" class="cls-1" d="M657.5,1302a22.5,22.5,0,1,1,22.5-22.5A22.523,22.523,0,0,1,657.5,1302Zm0-43a20.5,20.5,0,1,0,20.5,20.5A20.525,20.525,0,0,0,657.5,1259Zm-8.524,30.85a1.844,1.844,0,0,1-1.569-.89,1.818,1.818,0,0,1-.041-1.8l5.927-11.12a1.838,1.838,0,0,1,.753-0.75l11.115-5.92a1.864,1.864,0,0,1,2.432.67,1.818,1.818,0,0,1,.041,1.8l-6.188,11.61-11.607,6.18A1.768,1.768,0,0,1,648.976,1289.85Zm6.056-12.82L649.4,1287.6l10.57-5.63,5.654-10.61Zm3.4,2.47a0.93,0.93,0,1,1-.93-0.93A0.932,0.932,0,0,1,658.43,1279.5Z" transform="translate(-635 -1257)"/>
</svg>
