<svg xmlns="http://www.w3.org/2000/svg" width="49.437" height="53.82" viewBox="0 0 49.437 53.82">
  <metadata><?xpacket begin="﻿" id="W5M0MpCehiHzreSzNTczkc9d"?>
<x:xmpmeta xmlns:x="adobe:ns:meta/" x:xmptk="Adobe XMP Core 5.6-c138 79.159824, 2016/09/14-01:09:01        ">
   <rdf:RDF xmlns:rdf="http://www.w3.org/1999/02/22-rdf-syntax-ns#">
      <rdf:Description rdf:about=""/>
   </rdf:RDF>
</x:xmpmeta>
                                                                                                    
                                                                                                    
                                                                                                    
                                                                                                    
                                                                                                    
                                                                                                    
                                                                                                    
                                                                                                    
                                                                                                    
                                                                                                    
                                                                                                    
                                                                                                    
                                                                                                    
                                                                                                    
                                                                                                    
                                                                                                    
                                                                                                    
                                                                                                    
                                                                                                    
                                                                                                    
                           
<?xpacket end="w"?></metadata>
<defs>
    <style>
      .cls-1 {
        fill: #59698a;
        fill-rule: evenodd;
      }
    </style>
  </defs>
  <path id="形状_26" data-name="形状 26" class="cls-1" d="M664.1,1965.14c-2.639,0-4.8-.69-6.079-1.95a4.535,4.535,0,0,1-1.5-3.26,7.933,7.933,0,0,1-1.029.07,3.66,3.66,0,0,1-2.369-.75l-9.462-7.64a3.989,3.989,0,0,1-1.3-3.17,4.715,4.715,0,0,1-3.588-.78,8.661,8.661,0,0,1-3.2-5.68,13.877,13.877,0,0,1,7.747-15.64,15.4,15.4,0,0,1,6.675-1.29c0.181-.2.36-0.41,0.534-0.6a31.233,31.233,0,0,1,18.479-9.91,35.327,35.327,0,0,1,7.825-.42,25.619,25.619,0,0,1,3.773.46l1.366,0.31,0.482,1.3c0.114,0.29.239,0.63,0.41,1.13,0.276,0.81.508,1.59,0.713,2.38a34.523,34.523,0,0,1,1.061,11.86,30.437,30.437,0,0,1-3.679,11.96,31.578,31.578,0,0,1-2.809,4.25,13.665,13.665,0,0,1-3.689,13.33c-2.816,2.92-7.1,4-10.172,4.04H664.1Zm-4.1-7.94-1.244,1.99c-0.467.75-.216,1.72,0.672,2.59a6.9,6.9,0,0,0,4.676,1.38h0.16a12.8,12.8,0,0,0,8.763-3.43,11.9,11.9,0,0,0,3.084-11.95l-0.088-.35,0.06-.12v-0.11l0.218-.29a29.659,29.659,0,0,0,2.913-4.33,28.536,28.536,0,0,0,3.445-11.2,32.594,32.594,0,0,0-1.006-11.19c-0.193-.74-0.412-1.47-0.671-2.24-0.158-.45-0.274-0.77-0.386-1.06l-0.115-.31-0.308-.07a23.656,23.656,0,0,0-3.449-.41,33.777,33.777,0,0,0-7.384.39,29.312,29.312,0,0,0-17.326,9.29c-0.257.28-.527,0.59-0.8,0.91l-0.314.37-0.491-.02a13.717,13.717,0,0,0-6.25,1.1,11.887,11.887,0,0,0-6.622,13.46,6.894,6.894,0,0,0,2.338,4.41c1.063,0.69,2.1.74,2.755,0.08l1.74-1.77-0.031,2.47c-0.03,2.38.156,2.94,0.585,3.29l9.46,7.63c0.344,0.28,1.027.49,3.31-.01Zm7.26-18.15a6.98,6.98,0,1,1,7.037-6.98A7.015,7.015,0,0,1,667.256,1939.05Zm0-11.98a5.005,5.005,0,1,0,5.044,5A5.026,5.026,0,0,0,667.256,1927.07ZM635.7,1959.53h0a0.986,0.986,0,0,1-.036-1.4l4.94-5.16a1,1,0,0,1,1.408-.04h0a0.986,0.986,0,0,1,.036,1.4l-4.94,5.16A1,1,0,0,1,635.7,1959.53Zm1.246,7.5h0a0.987,0.987,0,0,1-.066-1.4l7.961-8.67a0.994,0.994,0,0,1,1.407-.07h0a0.987,0.987,0,0,1,.066,1.4l-7.961,8.67A0.994,0.994,0,0,1,636.941,1967.03Zm7.474,0.58h0a0.986,0.986,0,0,1-.036-1.4l4.94-5.16a1,1,0,0,1,1.409-.04h0a0.987,0.987,0,0,1,.036,1.4l-4.941,5.16A1,1,0,0,1,644.415,1967.61Z" transform="translate(-635.313 -1914.06)"/>
</svg>
