<svg xmlns="http://www.w3.org/2000/svg" width="55.031" height="53.88" viewBox="0 0 55.031 53.88">
  <metadata><?xpacket begin="﻿" id="W5M0MpCehiHzreSzNTczkc9d"?>
<x:xmpmeta xmlns:x="adobe:ns:meta/" x:xmptk="Adobe XMP Core 5.6-c138 79.159824, 2016/09/14-01:09:01        ">
   <rdf:RDF xmlns:rdf="http://www.w3.org/1999/02/22-rdf-syntax-ns#">
      <rdf:Description rdf:about=""/>
   </rdf:RDF>
</x:xmpmeta>
                                                                                                    
                                                                                                    
                                                                                                    
                                                                                                    
                                                                                                    
                                                                                                    
                                                                                                    
                                                                                                    
                                                                                                    
                                                                                                    
                                                                                                    
                                                                                                    
                                                                                                    
                                                                                                    
                                                                                                    
                                                                                                    
                                                                                                    
                                                                                                    
                                                                                                    
                                                                                                    
                           
<?xpacket end="w"?></metadata>
<defs>
    <style>
      .cls-1 {
        fill: #59698a;
        fill-rule: evenodd;
      }
    </style>
  </defs>
  <path id="形状_24" data-name="形状 24" class="cls-1" d="M117.932,1917.45H93.286V1915a1.008,1.008,0,0,0-1.009-1.01h0a1.008,1.008,0,0,0-1.009,1.01v2.45H67.041a2.068,2.068,0,0,0-2.061,2.07v31.98a2.061,2.061,0,0,0,2.061,2.07H91.267v4.76a1.017,1.017,0,0,1-.388.8l-8.774,6.88a1.013,1.013,0,0,0,1.242,1.6l8.9-6.98,8.957,7.02a1.013,1.013,0,0,0,1.242-1.6l-8.774-6.88a1.017,1.017,0,0,1-.388-0.8v-4.8h24.646a2.061,2.061,0,0,0,2.061-2.07v-31.98A2.068,2.068,0,0,0,117.932,1917.45Zm0.042,32.02a2.07,2.07,0,0,1-2.061,2.08H69.06A2.07,2.07,0,0,1,67,1949.47v-27.92a2.068,2.068,0,0,1,2.061-2.07h46.853a2.068,2.068,0,0,1,2.061,2.07v27.92ZM110.656,1930a1,1,0,0,0-1.415-.19l-10.657,8.18a2.386,2.386,0,0,1-2.767.1l-10.239-6.72a2.388,2.388,0,0,0-2.859.17l-9.038,7.68a1.013,1.013,0,0,0,1.3,1.55l7.889-6.7a2.389,2.389,0,0,1,2.859-.18l10.176,6.68a2.386,2.386,0,0,0,2.767-.1l11.793-9.05a1.015,1.015,0,0,0,.189-1.42h0Z" transform="translate(-64.969 -1914)"/>
</svg>
