<svg xmlns="http://www.w3.org/2000/svg" width="29" height="29" viewBox="0 0 29 29">
  <metadata><?xpacket begin="﻿" id="W5M0MpCehiHzreSzNTczkc9d"?>
<x:xmpmeta xmlns:x="adobe:ns:meta/" x:xmptk="Adobe XMP Core 5.6-c138 79.159824, 2016/09/14-01:09:01        ">
   <rdf:RDF xmlns:rdf="http://www.w3.org/1999/02/22-rdf-syntax-ns#">
      <rdf:Description rdf:about=""/>
   </rdf:RDF>
</x:xmpmeta>
                                                                                                    
                                                                                                    
                                                                                                    
                                                                                                    
                                                                                                    
                                                                                                    
                                                                                                    
                                                                                                    
                                                                                                    
                                                                                                    
                                                                                                    
                                                                                                    
                                                                                                    
                                                                                                    
                                                                                                    
                                                                                                    
                                                                                                    
                                                                                                    
                                                                                                    
                                                                                                    
                           
<?xpacket end="w"?></metadata>
<defs>
    <style>
      .cls-1 {
        fill: #fe4a33;
        fill-rule: evenodd;
      }
    </style>
  </defs>
  <path id="期限" class="cls-1" d="M474.5,918A14.5,14.5,0,1,1,489,903.5,14.517,14.517,0,0,1,474.5,918Zm0-27A12.5,12.5,0,1,0,487,903.5,12.514,12.514,0,0,0,474.5,891Zm0.666,10.953v-5.828a1,1,0,0,0-1-1h0a1,1,0,0,0-1,1v7.062h0.06l-0.034.034,4.994,4.994a1,1,0,0,0,1.415,0h0a1,1,0,0,0,0-1.414l-4.142-4.141A1,1,0,0,1,475.166,901.953Z" transform="translate(-460 -889)"/>
</svg>
