<svg xmlns="http://www.w3.org/2000/svg" width="135" height="135" viewBox="0 0 45 45">
  <metadata><?xpacket begin="﻿" id="W5M0MpCehiHzreSzNTczkc9d"?>
<x:xmpmeta xmlns:x="adobe:ns:meta/" x:xmptk="Adobe XMP Core 5.6-c138 79.159824, 2016/09/14-01:09:01        ">
   <rdf:RDF xmlns:rdf="http://www.w3.org/1999/02/22-rdf-syntax-ns#">
      <rdf:Description rdf:about=""/>
   </rdf:RDF>
</x:xmpmeta>
                                                                                                    
                                                                                                    
                                                                                                    
                                                                                                    
                                                                                                    
                                                                                                    
                                                                                                    
                                                                                                    
                                                                                                    
                                                                                                    
                                                                                                    
                                                                                                    
                                                                                                    
                                                                                                    
                                                                                                    
                                                                                                    
                                                                                                    
                                                                                                    
                                                                                                    
                                                                                                    
                           
<?xpacket end="w"?></metadata>
	<defs>
		<linearGradient id="red_black" x1="0%" y1="0%" x2="0%" y2="100%">
		<stop offset="0%" style="stop-color:#ff8d49;stop-opacity:1"/>
		<stop offset="100%" style="stop-color:#fe4b33;stop-opacity:1"/>
		</linearGradient>
	    <style>
	      .cls-1 {
	       fill:url(#red_black);  
	       color: #AEAFDD;  
	      }
	    </style>
	</defs>
  <path id="项目-full" class="cls-1" d="M285.5,1256a22.5,22.5,0,1,0,22.5,22.5A22.523,22.523,0,0,0,285.5,1256Zm1.638,14.54,2.725-2.72a0.984,0.984,0,0,1,1.415,0,1,1,0,0,1,0,1.41l-2.726,2.72a0.983,0.983,0,0,1-1.414,0A1,1,0,0,1,287.138,1270.54Zm-7.588-2.55a1,1,0,0,1,1.414,0l2.725,2.72a1,1,0,0,1-1.414,1.42l-2.725-2.73A0.994,0.994,0,0,1,279.55,1267.99Zm13.8,6.9a1,1,0,0,1-1,1h-5.106a1,1,0,0,0-1,1v3.41a1,1,0,0,0,1,1h5.106a1,1,0,0,1,1,1h0a1,1,0,0,1-1,1h-5.106a1,1,0,0,0-1,1v4.59a1,1,0,0,1-1,1h0a1,1,0,0,1-1-1v-4.59a1,1,0,0,0-1-1h-4.589a1,1,0,0,1-1-1h0a1,1,0,0,1,1-1h4.589a1,1,0,0,0,1-1v-3.41a1,1,0,0,0-1-1h-4.589a1,1,0,0,1-1-1h0a0.994,0.994,0,0,1,1-1h13.695a1,1,0,0,1,1,1h0Z" transform="translate(-263 -1256)"/>
</svg>
