<svg xmlns="http://www.w3.org/2000/svg" width="44.031" height="45" viewBox="0 0 44.031 45">
  <metadata><?xpacket begin="﻿" id="W5M0MpCehiHzreSzNTczkc9d"?>
<x:xmpmeta xmlns:x="adobe:ns:meta/" x:xmptk="Adobe XMP Core 5.6-c138 79.159824, 2016/09/14-01:09:01        ">
   <rdf:RDF xmlns:rdf="http://www.w3.org/1999/02/22-rdf-syntax-ns#">
      <rdf:Description rdf:about=""/>
   </rdf:RDF>
</x:xmpmeta>
                                                                                                    
                                                                                                    
                                                                                                    
                                                                                                    
                                                                                                    
                                                                                                    
                                                                                                    
                                                                                                    
                                                                                                    
                                                                                                    
                                                                                                    
                                                                                                    
                                                                                                    
                                                                                                    
                                                                                                    
                                                                                                    
                                                                                                    
                                                                                                    
                                                                                                    
                                                                                                    
                           
<?xpacket end="w"?></metadata>
<defs>
    <style>
      .cls-1 {
        fill: #59698a;
        fill-rule: evenodd;
      }
    </style>
  </defs>
  <path id="账户" class="cls-1" d="M471.4,1282.04a13.575,13.575,0,0,1-9.472-3.78,12.729,12.729,0,0,1,0-18.48,13.756,13.756,0,0,1,18.943,0,12.729,12.729,0,0,1,0,18.48A13.574,13.574,0,0,1,471.4,1282.04Zm0-24.04a11.653,11.653,0,0,0-8.1,3.22,10.736,10.736,0,0,0,0,15.6,11.8,11.8,0,0,0,16.2,0,10.737,10.737,0,0,0,0-15.6A11.651,11.651,0,0,0,471.4,1258Zm21.594,43H491a19.069,19.069,0,0,0-1.8-8.13,19.516,19.516,0,0,0-4.877-6.45c-0.527-.46-1.086-0.9-1.662-1.31a3.941,3.941,0,0,0-3.269-.57,16.1,16.1,0,0,0-3.358,1.31,12.268,12.268,0,0,1-5.049,1.58,12.442,12.442,0,0,1-5.063-1.57,16.2,16.2,0,0,0-3.376-1.3,3.972,3.972,0,0,0-3.282.58c-0.531.38-1.046,0.78-1.53,1.2a19.562,19.562,0,0,0-4.939,6.48,19.063,19.063,0,0,0-1.828,8.18h-1.988a21.009,21.009,0,0,1,2.02-9.03,21.489,21.489,0,0,1,5.44-7.14,19.1,19.1,0,0,1,1.683-1.32,5.944,5.944,0,0,1,4.827-.91,17.222,17.222,0,0,1,3.815,1.45,7.094,7.094,0,0,0,8.422-.01,17.553,17.553,0,0,1,3.8-1.46,5.953,5.953,0,0,1,4.816.89,22.086,22.086,0,0,1,1.828,1.44,21.5,21.5,0,0,1,5.372,7.11A21.046,21.046,0,0,1,492.992,1301Z" transform="translate(-448.969 -1256)"/>
</svg>
