<svg xmlns="http://www.w3.org/2000/svg" width="45" height="45" viewBox="0 0 45 45">
  <metadata><?xpacket begin="﻿" id="W5M0MpCehiHzreSzNTczkc9d"?>
<x:xmpmeta xmlns:x="adobe:ns:meta/" x:xmptk="Adobe XMP Core 5.6-c138 79.159824, 2016/09/14-01:09:01        ">
   <rdf:RDF xmlns:rdf="http://www.w3.org/1999/02/22-rdf-syntax-ns#">
      <rdf:Description rdf:about=""/>
   </rdf:RDF>
</x:xmpmeta>
                                                                                                    
                                                                                                    
                                                                                                    
                                                                                                    
                                                                                                    
                                                                                                    
                                                                                                    
                                                                                                    
                                                                                                    
                                                                                                    
                                                                                                    
                                                                                                    
                                                                                                    
                                                                                                    
                                                                                                    
                                                                                                    
                                                                                                    
                                                                                                    
                                                                                                    
                                                                                                    
                           
<?xpacket end="w"?></metadata>
<defs>
    <style>
      .cls-1 {
        fill: #59698a;
        fill-rule: evenodd;
      }
    </style>
  </defs>
  <path id="项目" class="cls-1" d="M285.5,1301a22.5,22.5,0,1,1,22.5-22.5A22.523,22.523,0,0,1,285.5,1301Zm0-43a20.5,20.5,0,1,0,20.5,20.5A20.525,20.525,0,0,0,285.5,1258Zm-1.811,12.71-2.725-2.72a1,1,0,0,0-1.414,0h0a0.994,0.994,0,0,0,0,1.41l2.725,2.73a1,1,0,0,0,1.414,0h0A1.008,1.008,0,0,0,283.689,1270.71Zm7.589-2.89h0a0.984,0.984,0,0,0-1.415,0l-2.725,2.72a1,1,0,0,0,0,1.41h0a0.983,0.983,0,0,0,1.414,0l2.726-2.72A1,1,0,0,0,291.278,1267.82Zm2.069,7.07h0a1,1,0,0,0-1-1H278.652a0.994,0.994,0,0,0-1,1h0a1,1,0,0,0,1,1h4.589a1,1,0,0,1,1,1v3.41a1,1,0,0,1-1,1h-4.589a1,1,0,0,0-1,1h0a1,1,0,0,0,1,1h4.589a1,1,0,0,1,1,1v4.59a1,1,0,0,0,1,1h0a1,1,0,0,0,1-1v-4.59a1,1,0,0,1,1-1h5.106a1,1,0,0,0,1-1h0a1,1,0,0,0-1-1h-5.106a1,1,0,0,1-1-1v-3.41a1,1,0,0,1,1-1h5.106A1,1,0,0,0,293.347,1274.89Z" transform="translate(-263 -1256)"/>
</svg>
