<svg xmlns="http://www.w3.org/2000/svg" width="43" height="53.88" viewBox="0 0 43 53.88">
  <metadata><?xpacket begin="﻿" id="W5M0MpCehiHzreSzNTczkc9d"?>
<x:xmpmeta xmlns:x="adobe:ns:meta/" x:xmptk="Adobe XMP Core 5.6-c138 79.159824, 2016/09/14-01:09:01        ">
   <rdf:RDF xmlns:rdf="http://www.w3.org/1999/02/22-rdf-syntax-ns#">
      <rdf:Description rdf:about=""/>
   </rdf:RDF>
</x:xmpmeta>
                                                                                                    
                                                                                                    
                                                                                                    
                                                                                                    
                                                                                                    
                                                                                                    
                                                                                                    
                                                                                                    
                                                                                                    
                                                                                                    
                                                                                                    
                                                                                                    
                                                                                                    
                                                                                                    
                                                                                                    
                                                                                                    
                                                                                                    
                                                                                                    
                                                                                                    
                                                                                                    
                           
<?xpacket end="w"?></metadata>
<defs>
    <style>
      .cls-1 {
        fill: #59698a;
        fill-rule: evenodd;
      }
    </style>
  </defs>
  <path id="形状_25" data-name="形状 25" class="cls-1" d="M375.469,1945.35a11.121,11.121,0,1,1,11.25-11.12A11.2,11.2,0,0,1,375.469,1945.35Zm0-20.24a9.121,9.121,0,1,0,9.231,9.12A9.185,9.185,0,0,0,375.469,1925.11Zm11.19,41.78a2.49,2.49,0,0,1-2.139-1.22l-6.081-10.42a20.387,20.387,0,0,1-5.94,0l-6.083,10.42a2.489,2.489,0,0,1-4.528-.59l-0.967-3.57-3.605.96a2.53,2.53,0,0,1-2.6-.88,2.4,2.4,0,0,1-.181-2.7l5.685-9.74a21.165,21.165,0,0,1-6.241-14.92,21.492,21.492,0,0,1,42.981,0,21.158,21.158,0,0,1-6.242,14.92l5.687,9.73a2.428,2.428,0,0,1-.181,2.72,2.518,2.518,0,0,1-1.96.95h0a2.807,2.807,0,0,1-.646-0.08l-3.6-.96-0.965,3.57a2.448,2.448,0,0,1-2.066,1.78A1.773,1.773,0,0,1,386.659,1966.89Zm-7.177-13.84,6.787,11.62a0.465,0.465,0,0,0,.39.22h0.06a0.468,0.468,0,0,0,.378-0.33l1.488-5.49,5.557,1.47a0.527,0.527,0,0,0,.121.02h0a0.457,0.457,0,0,0,.358-0.18,0.445,0.445,0,0,0,.034-0.5l-5.851-10.01h0a0.332,0.332,0,0,0-.063-0.06l-0.887-.73,0.844-.77a18.953,18.953,0,0,0,6.241-14.08,19.472,19.472,0,0,0-38.941,0,18.95,18.95,0,0,0,6.242,14.08l0.843,0.77-0.887.73a0.434,0.434,0,0,0-.086.09l-5.827,9.98a0.447,0.447,0,0,0,.035.5,0.455,0.455,0,0,0,.477.16l5.554-1.47,1.489,5.49a0.444,0.444,0,0,0,.378.32,0.524,0.524,0,0,0,.453-0.21l6.787-11.62,0.7,0.12a18.427,18.427,0,0,0,6.623,0Z" transform="translate(-353.969 -1913)"/>
</svg>
