<svg xmlns="http://www.w3.org/2000/svg" width="25.531" height="28" viewBox="0 0 25.531 28">
  <metadata><?xpacket begin="﻿" id="W5M0MpCehiHzreSzNTczkc9d"?>
<x:xmpmeta xmlns:x="adobe:ns:meta/" x:xmptk="Adobe XMP Core 5.6-c138 79.159824, 2016/09/14-01:09:01        ">
   <rdf:RDF xmlns:rdf="http://www.w3.org/1999/02/22-rdf-syntax-ns#">
      <rdf:Description rdf:about=""/>
   </rdf:RDF>
</x:xmpmeta>
                                                                                                    
                                                                                                    
                                                                                                    
                                                                                                    
                                                                                                    
                                                                                                    
                                                                                                    
                                                                                                    
                                                                                                    
                                                                                                    
                                                                                                    
                                                                                                    
                                                                                                    
                                                                                                    
                                                                                                    
                                                                                                    
                                                                                                    
                                                                                                    
                                                                                                    
                                                                                                    
                           
<?xpacket end="w"?></metadata>
<defs>
    <style>
      .cls-1 {
        fill: #59698a;
        fill-rule: evenodd;
      }
    </style>
  </defs>
  <path id="kfrx01" data-name="形状 20" class="cls-1" d="M269.752,2065.62q0.009-.4,0-0.81a11.985,11.985,0,0,0-3.177-8.91,10.344,10.344,0,0,0-3.7-2.37c-0.222-1.98-2.387-3.53-5.017-3.53s-4.794,1.55-5.016,3.53a10.336,10.336,0,0,0-3.7,2.37,11.945,11.945,0,0,0-3.177,8.89c-0.007.35,0,.67,0.006,0.99a2.5,2.5,0,0,0-.675,2.57,2.7,2.7,0,0,0,1.693,1.82,2.666,2.666,0,0,0,1.4.39,9.884,9.884,0,0,0,19.157-.01,0.316,0.316,0,0,0,.1.02,2.755,2.755,0,0,0,1.689-.59,2.658,2.658,0,0,0,1.274-1.63,2.528,2.528,0,0,0-.849-2.73h0m-16.126-5.29a11.583,11.583,0,0,0,5.407,4.45,18.506,18.506,0,0,0,2.9.77c1.909,0.4,3.713.78,4.942,2.36,0.012,0.02.027,0.03,0.041,0.05l0,0.08a11.021,11.021,0,0,1-.131,1.7,9.831,9.831,0,0,1-7.447,4.49,1.642,1.642,0,0,0-1.308-.53,1.055,1.055,0,1,0,0,1.94,1.415,1.415,0,0,0,1.444-.81,11.72,11.72,0,0,0,2.982-.74,10.306,10.306,0,0,0,3.5-2.32c0.158-.16.309-0.32,0.456-0.49a8.486,8.486,0,0,1-8.421,5.82h-0.035c-5.264,0-8.941-3.73-8.941-9.07l-0.01-.51c-0.007-.22.028-0.83,0.064-1.42a7.545,7.545,0,0,0,4.114-4.02l0.447-1.75m4.361,16.77h0Zm-2.468-8.67a1.7,1.7,0,1,1-1.7-1.68,1.7,1.7,0,0,1,1.7,1.68m7.926,0a1.675,1.675,0,1,1-1.675-1.66,1.666,1.666,0,0,1,1.675,1.66" transform="translate(-245.188 -2050)"/>
</svg>
